<svg id="visual" viewBox="0 0 600 400" width="600" height="400" xmlns="http://www.w3.org/2000/svg" xmlns:xlink="http://www.w3.org/1999/xlink" version="1.1"><g transform="translate(312.5953015229533 208.27204247544023)"><path d="M97.4 -114.6C127.9 -90.4 155.5 -61.4 154.6 -32.4C153.6 -3.4 124 25.6 102 54.3C79.9 83 65.4 111.5 41.4 125.1C17.4 138.8 -16.1 137.5 -53 130.6C-89.9 123.7 -130.3 111.1 -154.8 82.6C-179.4 54.1 -188.2 9.7 -170.5 -19.5C-152.7 -48.7 -108.5 -62.7 -75.7 -86.4C-42.9 -110.1 -21.4 -143.5 6 -150.7C33.4 -157.8 66.8 -138.7 97.4 -114.6" fill="#EFCA08"></path></g></svg>